<svg width="448" height="493" viewBox="0 0 448 493" fill="none" xmlns="http://www.w3.org/2000/svg">
<path d="M323 0L300 217.3L260.9 34.1L138.1 60.1L177.2 243.3L0.200195 280.7L31.5002 427L342.8 492.8L414 333.8L447.9 13.1L323 0ZM224.6 315.3C218.2 321.1 209.7 320.6 200.7 317.6C191.7 314.6 187.7 303.8 191.1 290.7C193.6 281 205.6 279.5 211.6 279.4C213.9 279.4 216.1 279.8 218.2 280.7C222.4 282.6 229.6 286.7 231 292.9C233.1 301.9 231.1 309.4 224.6 315.3ZM314.7 325.3C310 333.4 297.8 334.4 285.8 328.6C277.7 324.6 277.7 314.6 278.6 308.4C279.1 305.1 280.4 301.9 282.5 299.2C285.4 295.5 290.2 290.8 295.8 290.6C304.9 290.4 312.7 294.4 317.1 301.8C321.7 309.2 319.5 317.3 314.7 325.3Z" fill="white"/>
</svg>
